Coordinates
version=1
nRows=60
nColumns=12
inDegrees=yes

Units are S.I. units (second, meters, Newtons, ...)
Angles are in degrees

endheader
time	SC_y	SC_z	SC_x	AC_y	AC_z	AC_x	GH_y	GH_z	GH_yy	EL_x	PS_y
       0.0              -33.66          36.28          79.73          58.51         -3.765          14.93          60.92          21.37         -95.77          126.8           60.0
   0.03831              -33.66          36.28          79.72           58.5         -3.767          14.93          60.94          21.38         -95.75          126.8          60.01
   0.07662              -33.66          36.27          79.71           58.5         -3.769          14.93          60.96          21.39         -95.73          126.8          60.02
    0.1149              -33.65          36.27           79.7           58.5         -3.771          14.93          60.98           21.4         -95.71          126.7          60.03
    0.1532              -33.65          36.26          79.69           58.5         -3.773          14.93           61.0          21.41         -95.68          126.7          60.04
    0.1915              -33.65          36.26          79.68           58.5         -3.776          14.93          61.02          21.42         -95.66          126.7          60.05
    0.2299              -33.65          36.25          79.66           58.5         -3.778          14.93          61.04          21.43         -95.63          126.7          60.07
    0.2682              -33.65          36.25          79.65          58.49         -3.781          14.92          61.07          21.44          -95.6          126.7          60.08
    0.3065              -33.65          36.24          79.63          58.49         -3.784          14.92           61.1          21.46         -95.57          126.7           60.1
    0.3448              -33.64          36.23          79.62          58.49         -3.787          14.92          61.12          21.47         -95.53          126.7          60.12
    0.3831              -33.64          36.23           79.6          58.49          -3.79          14.92          61.15          21.48          -95.5          126.7          60.14
    0.4214              -33.64          36.22          79.58          58.48         -3.794          14.92          61.19           21.5         -95.46          126.7          60.16
    0.4597              -33.64          36.21          79.56          58.48         -3.798          14.92          61.22          21.52         -95.41          126.7          60.18
     0.498              -33.63           36.2          79.54          58.48         -3.802          14.91          61.26          21.54         -95.37          126.6           60.2
    0.5363              -33.63          36.19          79.52          58.47         -3.807          14.91           61.3          21.55         -95.32          126.6          60.23
    0.5746              -33.63          36.18          79.49          58.47         -3.812          14.91          61.35          21.58         -95.26          126.6          60.25
     0.613              -33.62          36.17          79.46          58.46         -3.817          14.91           61.4           21.6          -95.2          126.6          60.28
    0.6513              -33.62          36.15          79.43          58.46         -3.823           14.9          61.45          21.63         -95.14          126.6          60.31
    0.6896              -33.62          36.14           79.4          58.45          -3.83           14.9          61.51          21.65         -95.07          126.5          60.35
    0.7279              -33.61          36.12          79.36          58.45         -3.837           14.9          61.57          21.68         -94.99          126.5          60.39
    0.7662              -33.61           36.1          79.33          58.44         -3.845           14.9          61.64          21.72         -94.91          126.5          60.43
    0.8045               -33.6          36.09          79.28          58.43         -3.853          14.89          61.72          21.75         -94.82          126.5          60.48
    0.8428               -33.6          36.06          79.23          58.43         -3.863          14.89           61.8          21.79         -94.71          126.4          60.53
    0.8811              -33.59          36.04          79.18          58.42         -3.873          14.88           61.9          21.84          -94.6          126.4          60.59
    0.9194              -33.58          36.01          79.12          58.41         -3.885          14.88           62.0          21.89         -94.47          126.4          60.65
    0.9577              -33.57          35.99          79.06           58.4         -3.898          14.87          62.12          21.95         -94.33          126.3          60.72
     0.996              -33.56          35.95          78.98          58.38         -3.912          14.87          62.25          22.01         -94.18          126.3           60.8
     1.034              -33.55          35.92           78.9          58.37         -3.929          14.86           62.4          22.08          -94.0          126.2          60.89
     1.073              -33.54          35.87           78.8          58.36         -3.947          14.85          62.56          22.16          -93.8          126.1          60.99
     1.111              -33.53          35.83           78.7          58.34         -3.968          14.84          62.75          22.25         -93.57          126.1          61.11
     1.149              -33.51          35.77          78.58          58.32         -3.992          14.83          62.97          22.35         -93.31          126.0          61.24
     1.188              -33.49          35.71          78.44           58.3         -4.019          14.82          63.21          22.47         -93.01          125.9          61.39
     1.226              -33.47          35.64          78.28          58.27         -4.051           14.8           63.5          22.61         -92.67          125.8          61.56
     1.264              -33.45          35.56          78.09          58.24         -4.088          14.79          63.83          22.77         -92.27          125.7          61.76
     1.303              -33.42          35.46          77.87           58.2         -4.131          14.77          64.22          22.95          -91.8          125.5           62.0
     1.341              -33.39          35.35          77.61          58.16         -4.182          14.74          64.67          23.17         -91.25          125.3          62.28
     1.379              -33.35          35.21           77.3          58.11         -4.242          14.72          65.22          23.43         -90.59          125.1          62.61
     1.417               -33.3          35.05          76.94          58.05         -4.315          14.68          65.87          23.74         -89.81          124.9           63.0
     1.456              -33.25          34.85          76.49          57.98         -4.403          14.65          66.66          24.12         -88.86          124.6          63.48
     1.494              -33.18          34.61          75.95          57.89          -4.51           14.6          67.62          24.58          -87.7          124.2          64.07
     1.532              -33.09          34.32          75.27          57.78         -4.642          14.54          68.81          25.15         -86.26          123.8          64.79
     1.571              -32.98          33.95          74.44          57.65         -4.806          14.46          70.29          25.86         -84.48          123.2          65.69
     1.609              -32.85          33.48          73.38          57.48         -5.014          14.37          72.15          26.75         -82.23          122.5          66.83
     1.647              -32.68          32.89          72.04          57.26         -5.278          14.25          74.53          27.89         -79.36          121.6          68.27
     1.686              -32.46          32.13          70.32          56.98         -5.616           14.1          77.56          29.34          -75.7          120.5          70.12
     1.724              -32.18          31.16          68.12          56.63         -6.049          13.91          81.46          31.21          -71.0          119.0          72.49
     1.762              -31.82          29.92          65.31          56.17         -6.603          13.66          86.43          33.59          -65.0          117.1          75.52
     1.801              -31.37          28.36          61.77           55.6         -7.299          13.35          92.69          36.59         -57.45          114.7          79.33
     1.839              -30.82          26.45          57.46           54.9         -8.147          12.96          100.3          40.24         -48.24          111.9          83.97
     1.877              -30.18          24.25          52.46          54.09          -9.13          12.52          109.2          44.48         -37.58          108.5          89.35
     1.915              -29.49          21.86          47.05          53.21         -10.19          12.05          118.7          49.06         -26.03          104.9          95.17
     1.954               -28.8          19.47          41.64          52.34         -11.26          11.57          128.3          53.65         -14.48          101.3          101.0
     1.992              -28.16          17.27          36.64          51.53         -12.24          11.13          137.1          57.88          -3.82          97.92          106.4
      2.03              -27.61          15.37          32.33          50.83         -13.09          10.75          144.8          61.54          5.381          95.03          111.0
     2.069              -27.16           13.8          28.79          50.25         -13.79          10.43          151.0          64.53          12.93          92.66          114.8
     2.107               -26.8          12.56          25.98           49.8         -14.34          10.19          156.0          66.92          18.94          90.78          117.9
     2.145              -26.52          11.59          23.77          49.44         -14.77          9.992          159.9          68.78          23.64           89.3          120.2
     2.184               -26.3          10.83          22.06          49.16         -15.11           9.84          162.9          70.24           27.3          88.15          122.1
     2.222              -26.13          10.24          20.72          48.95         -15.38          9.722          165.3          71.37          30.16          87.26          123.5
      2.26               -26.0          9.776          19.66          48.78         -15.58          9.628          167.2          72.27          32.41          86.55          124.6
